# This file uses centimeters as units for non-parametric coordinates.

mtllib January_Rock_27.mtl
g default
v -70.331581 19.984280 -29.730835
v -21.141911 10.213833 -57.983459
v -62.252022 9.021255 72.300629
v 69.082497 15.282443 -51.144531
v 1.351116 9.073875 -62.379791
v 68.748642 60.593548 -67.771179
v 83.963074 41.014111 -9.439453
v 11.285783 0.132100 44.970459
v 79.565056 6.179612 40.424194
v 35.615410 83.958000 -50.170563
v 65.658638 45.319847 14.565887
v 50.201393 8.297923 90.759460
v 38.299004 73.957077 -2.493713
v -44.965881 75.409019 -18.941956
v 61.605629 61.214920 -28.355560
v 39.259144 73.739555 -74.179413
v 40.954678 -0.000004 56.277679
v 55.073318 71.042549 -63.020569
v -21.422462 72.896446 -48.181671
v -51.123531 11.310913 -53.901154
v 41.147297 54.925858 49.040649
v 71.065735 6.869450 75.399689
v -3.609700 1.080240 74.685028
v -41.735729 1.188948 71.388031
v -81.050659 10.551360 10.618805
v -43.293747 53.096916 52.275940
v 41.479454 8.937254 -63.143036
v 22.375664 56.386280 -77.815033
v 43.092899 63.486526 -77.169128
v 82.390556 51.909470 -40.415466
v 81.190292 7.276529 -13.483398
v 0.000041 -0.000004 -0.000275
v -23.251793 1.019092 3.709534
v 12.962234 68.967781 -69.928894
v -53.035591 66.725899 22.664948
v 41.319679 -0.169849 -4.563507
v 41.082432 1.019092 85.247528
v -54.072052 1.188948 6.010162
vt 0.125000 0.250000
vt 0.125000 0.000000
vt 0.250000 0.000000
vt 0.250000 0.250000
vt 0.375000 0.000000
vt 0.375000 0.250000
vt 0.625000 0.750000
vt 0.500000 0.750000
vt 0.495902 0.530372
vt 0.625000 0.500000
vt 0.375000 0.750000
vt 0.375000 0.500000
vt 0.875000 0.000000
vt 0.875000 0.250000
vt 0.750000 0.250000
vt 0.750000 0.000000
vt 0.625000 0.250000
vt 0.625000 0.000000
vt 0.125000 0.000000
vt 0.250000 0.000000
vt 0.270429 0.006001
vt 0.165858 0.004663
vt 0.375000 0.000000
vt 0.375000 0.007339
vt 0.132216 0.250000
vt 0.125000 0.250000
vt 0.375000 0.375000
vt 0.625000 0.250000
vt 0.625000 0.375000
vt 0.375000 0.500000
vt 0.625000 0.500000
vt 0.538833 0.371586
vt 0.518241 0.250000
vt 0.625000 0.375000
vt 0.559426 0.493171
vt 0.375000 0.492783
vt 0.467213 0.492977
vt 0.500000 0.875000
vt 0.375000 0.875000
vt 0.625000 0.875000
vt 0.625000 1.000000
vt 0.500000 1.000000
vt 0.375000 1.000000
vt 0.625000 0.556041
vt 0.593448 0.556097
vt 0.561896 0.556154
vt 0.476804 0.553478
vt 0.375000 0.750000
vt 0.436090 0.752560
vt 0.486857 0.750000
vt 0.625000 0.000000
vt 0.500000 0.000000
vt 0.464185 0.007339
vt 0.553371 0.007339
vt 0.720769 0.000000
vt 0.711689 0.181565
vt 0.875000 0.250000
vt 0.750000 0.250000
vt 0.793345 0.187762
vt 0.875000 0.193959
vt 0.625000 1.000000
vt 0.494396 0.984812
vt 0.559698 0.944521
vt 0.625000 0.904231
vt 0.375000 1.000000
vt 0.450085 0.962738
vt 0.432813 0.871203
vt 0.490626 0.867406
vt 0.375000 0.875000
vn -0.463964 0.880657 -0.095815
vn -0.909845 0.106348 -0.401088
vn -0.996444 -0.048989 0.068551
vn -0.462745 0.849692 0.252765
vn -0.462745 0.849692 0.252765
vn -0.996444 -0.048989 0.068551
vn -0.497637 0.268373 0.824823
vn -0.263791 0.722499 0.639069
vn 0.565999 -0.629008 -0.532911
vn 0.140042 -0.792483 -0.593598
vn 0.209842 -0.134153 -0.968488
vn 0.712952 0.055798 -0.698989
vn 0.140042 -0.792483 -0.593598
vn -0.119730 -0.805463 -0.580426
vn -0.127503 -0.148132 -0.980714
vn 0.209842 -0.134153 -0.968488
vn 0.565999 -0.629008 -0.532911
vn 0.712952 0.055798 -0.698989
vn 0.959817 0.218544 -0.176037
vn 0.658169 -0.741148 -0.132336
vn 0.658169 -0.741148 -0.132336
vn 0.959817 0.218544 -0.176037
vn 0.938888 0.313821 0.141440
vn 0.785379 -0.585534 0.200823
vn -0.119730 -0.805463 -0.580426
vn -0.030385 -0.996435 -0.078697
vn -0.031970 -0.997203 -0.067557
vn -0.297417 -0.569362 -0.766401
vn -0.030385 -0.996435 -0.078697
vn -0.018852 -0.999747 0.012310
vn -0.045130 -0.966799 0.251522
vn -0.031970 -0.997203 -0.067557
vn -0.297417 -0.569362 -0.766401
vn -0.312545 0.525970 -0.790994
vn -0.127503 -0.148132 -0.980714
vn -0.119730 -0.805463 -0.580426
vn -0.462745 0.849692 0.252765
vn -0.263791 0.722499 0.639069
vn 0.152970 0.765076 0.625507
vn 0.175055 0.947082 0.269055
vn -0.463964 0.880657 -0.095815
vn -0.462745 0.849692 0.252765
vn 0.175055 0.947082 0.269055
vn 0.107990 0.993286 0.041494
vn 0.577266 0.796897 0.178101
vn 0.689180 0.654313 0.311297
vn 0.938888 0.313821 0.141440
vn 0.959817 0.218544 -0.176037
vn 0.489901 0.866328 -0.097329
vn 0.577266 0.796897 0.178101
vn 0.959817 0.218544 -0.176037
vn 0.712952 0.055798 -0.698989
vn -0.127503 -0.148132 -0.980714
vn -0.312545 0.525970 -0.790994
vn 0.040493 0.779481 -0.625116
vn 0.209842 -0.134153 -0.968488
vn 0.209842 -0.134153 -0.968488
vn 0.040493 0.779481 -0.625116
vn 0.489901 0.866328 -0.097329
vn 0.712952 0.055798 -0.698989
vn -0.119730 -0.805463 -0.580426
vn 0.140042 -0.792483 -0.593598
vn 0.082472 -0.993224 -0.081884
vn -0.030385 -0.996435 -0.078697
vn 0.140042 -0.792483 -0.593598
vn 0.565999 -0.629008 -0.532911
vn 0.658169 -0.741148 -0.132336
vn 0.082472 -0.993224 -0.081884
vn 0.082472 -0.993224 -0.081884
vn 0.658169 -0.741148 -0.132336
vn 0.785379 -0.585534 0.200823
vn 0.088077 -0.995944 0.018361
vn -0.030385 -0.996435 -0.078697
vn 0.082472 -0.993224 -0.081884
vn 0.088077 -0.995944 0.018361
vn -0.018852 -0.999747 0.012310
vn 0.107990 0.993286 0.041494
vn 0.489901 0.866328 -0.097329
vn 0.040493 0.779481 -0.625116
vn -0.312545 0.525970 -0.790994
vn 0.107990 0.993286 0.041494
vn -0.312545 0.525970 -0.790994
vn -0.433170 0.571456 -0.696995
vn -0.463964 0.880657 -0.095815
vn -0.909845 0.106348 -0.401088
vn -0.463964 0.880657 -0.095815
vn -0.433170 0.571456 -0.696995
vn -0.554357 -0.329363 -0.764335
vn -0.554357 -0.329363 -0.764335
vn -0.433170 0.571456 -0.696995
vn -0.312545 0.525970 -0.790994
vn -0.297417 -0.569362 -0.766401
vn -0.263791 0.722499 0.639069
vn -0.497637 0.268373 0.824823
vn 0.140022 0.559589 0.816856
vn 0.152970 0.765076 0.625507
vn -0.045130 -0.966799 0.251522
vn -0.018852 -0.999747 0.012310
vn 0.088077 -0.995944 0.018361
vn 0.078400 -0.973833 0.213315
vn 0.078400 -0.973833 0.213315
vn 0.088077 -0.995944 0.018361
vn 0.785379 -0.585534 0.200823
vn 0.838743 0.191366 0.509793
vn 0.838743 0.191366 0.509793
vn 0.785379 -0.585534 0.200823
vn 0.938888 0.313821 0.141440
vn 0.689180 0.654313 0.311297
vn 0.152970 0.765076 0.625507
vn 0.140022 0.559589 0.816856
vn 0.838743 0.191366 0.509793
vn 0.689180 0.654313 0.311297
vn 0.107990 0.993286 0.041494
vn 0.175055 0.947082 0.269055
vn 0.577266 0.796897 0.178101
vn 0.489901 0.866328 -0.097329
vn 0.175055 0.947082 0.269055
vn 0.152970 0.765076 0.625507
vn 0.689180 0.654313 0.311297
vn 0.577266 0.796897 0.178101
vn 0.140022 0.559589 0.816856
vn -0.045130 -0.966799 0.251522
vn 0.078400 -0.973833 0.213315
vn 0.838743 0.191366 0.509793
vn 0.140022 0.559589 0.816856
vn -0.497637 0.268373 0.824823
vn -0.128975 -0.967567 0.217209
vn -0.045130 -0.966799 0.251522
vn -0.045130 -0.966799 0.251522
vn -0.128975 -0.967567 0.217209
vn -0.189290 -0.979471 -0.069320
vn -0.031970 -0.997203 -0.067557
vn -0.128975 -0.967567 0.217209
vn -0.497637 0.268373 0.824823
vn -0.996444 -0.048989 0.068551
vn -0.189290 -0.979471 -0.069320
vn -0.189290 -0.979471 -0.069320
vn -0.996444 -0.048989 0.068551
vn -0.909845 0.106348 -0.401088
vn -0.554357 -0.329363 -0.764335
vn -0.031970 -0.997203 -0.067557
vn -0.189290 -0.979471 -0.069320
vn -0.554357 -0.329363 -0.764335
vn -0.297417 -0.569362 -0.766401
s off
g January_Rock_27
usemtl initialShadingGroup
f 14/1/1 1/2/2 25/3/3 35/4/4
f 35/4/5 25/3/6 3/5/7 26/6/8
f 4/7/9 27/8/10 29/9/11 6/10/12
f 27/8/13 5/11/14 28/12/15 29/9/16
f 4/13/17 6/14/18 30/15/19 31/16/20
f 31/16/21 30/15/22 7/17/23 9/18/24
f 5/19/25 32/20/26 33/21/27 2/22/28
f 32/20/29 8/23/30 23/24/31 33/21/32
f 2/22/33 34/25/34 28/26/35 5/19/36
f 35/27/37 26/6/38 21/28/39 13/29/40
f 14/30/41 35/27/42 13/29/43 10/31/44
f 15/32/45 11/33/46 7/17/47 30/34/48
f 18/35/49 15/32/50 30/34/51 6/10/52
f 28/12/53 34/36/54 16/37/55 29/9/56
f 29/9/57 16/37/58 18/35/59 6/10/60
f 5/11/61 27/8/62 36/38/63 32/39/64
f 27/8/65 4/7/66 31/40/67 36/38/68
f 36/38/69 31/40/70 9/41/71 17/42/72
f 32/39/73 36/38/74 17/42/75 8/43/76
f 10/31/77 18/44/78 16/45/79 34/46/80
f 10/31/81 34/46/82 19/47/83 14/30/84
f 1/48/85 14/30/86 19/47/87 20/49/88
f 20/49/89 19/47/90 34/46/91 2/50/92
f 26/6/93 3/5/94 12/51/95 21/28/96
f 23/24/97 8/23/98 17/52/99 37/53/100
f 37/53/101 17/52/102 9/18/103 22/54/104
f 22/54/105 9/18/106 7/17/107 11/33/108
f 21/28/109 12/51/110 22/55/111 11/56/112
f 10/57/113 13/58/114 15/59/115 18/60/116
f 13/58/117 21/28/118 11/56/119 15/59/120
f 12/61/121 23/62/122 37/63/123 22/64/124
f 12/61/125 3/65/126 24/66/127 23/62/128
f 23/62/129 24/66/130 38/67/131 33/68/132
f 24/66/133 3/65/134 25/69/135 38/67/136
f 38/67/137 25/69/138 1/48/139 20/49/140
f 33/68/141 38/67/142 20/49/143 2/50/144
